<?xml version="1.0" encoding="UTF-8" standalone="no"?>
<!DOCTYPE svg PUBLIC "-//W3C//DTD SVG 1.1//EN"
 "http://www.w3.org/Graphics/SVG/1.1/DTD/svg11.dtd">
<!-- Generated by graphviz version 2.26.3 (20100126.1600)
 -->
<!-- Title: controllers_diagram Pages: 1 -->
<svg width="881pt" height="863pt"
 viewBox="0.00 0.00 881.00 863.00" xmlns="http://www.w3.org/2000/svg" xmlns:xlink="http://www.w3.org/1999/xlink">
<g id="graph1" class="graph" transform="scale(1 1) rotate(0) translate(4 859)">
<title>controllers_diagram</title>
<polygon fill="white" stroke="white" points="-4,5 -4,-859 878,-859 878,5 -4,5"/>
<!-- _diagram_info -->
<g id="node1" class="node"><title>_diagram_info</title>
<text text-anchor="start" x="405" y="-178.3" font-family="Times New Roman,serif" font-size="13.00">Controllers diagram</text>
<text text-anchor="start" x="405" y="-163.3" font-family="Times New Roman,serif" font-size="13.00">Date: May 17 2011 &#45; 03:15</text>
<text text-anchor="start" x="405" y="-148.3" font-family="Times New Roman,serif" font-size="13.00">Migration version: 20110503185724</text>
<text text-anchor="start" x="405" y="-133.3" font-family="Times New Roman,serif" font-size="13.00">Generated by RailRoady 1.0.2</text>
<text text-anchor="start" x="405" y="-118.3" font-family="Times New Roman,serif" font-size="13.00">http://railroady.prestonlee.com</text>
</g>
<!-- AddressesController -->
<g id="node2" class="node"><title>AddressesController</title>
<polyline fill="none" stroke="black" points="255,-243.5 433,-243.5 "/>
<path fill="none" stroke="black" d="M433,-243.5C439,-243.5 445,-249.5 445,-255.5"/>
<polyline fill="none" stroke="black" points="445,-255.5 445,-455.5 "/>
<path fill="none" stroke="black" d="M445,-455.5C445,-461.5 439,-467.5 433,-467.5"/>
<polyline fill="none" stroke="black" points="433,-467.5 255,-467.5 "/>
<path fill="none" stroke="black" d="M255,-467.5C249,-467.5 243,-461.5 243,-455.5"/>
<polyline fill="none" stroke="black" points="243,-455.5 243,-255.5 "/>
<path fill="none" stroke="black" d="M243,-255.5C243,-249.5 249,-243.5 255,-243.5"/>
<text text-anchor="middle" x="344" y="-450.9" font-family="Times New Roman,serif" font-size="14.00">AddressesController</text>
<polyline fill="none" stroke="black" points="243,-443.5 445,-443.5 "/>
<text text-anchor="start" x="251" y="-426.9" font-family="Times New Roman,serif" font-size="14.00">_one_time_conditions_valid_36?</text>
<text text-anchor="start" x="251" y="-410.9" font-family="Times New Roman,serif" font-size="14.00">create</text>
<text text-anchor="start" x="251" y="-394.9" font-family="Times New Roman,serif" font-size="14.00">destroy</text>
<text text-anchor="start" x="251" y="-378.9" font-family="Times New Roman,serif" font-size="14.00">edit</text>
<text text-anchor="start" x="251" y="-362.9" font-family="Times New Roman,serif" font-size="14.00">index</text>
<text text-anchor="start" x="251" y="-346.9" font-family="Times New Roman,serif" font-size="14.00">new</text>
<text text-anchor="start" x="251" y="-330.9" font-family="Times New Roman,serif" font-size="14.00">show</text>
<text text-anchor="start" x="251" y="-314.9" font-family="Times New Roman,serif" font-size="14.00">update</text>
<polyline fill="none" stroke="black" points="243,-307.5 445,-307.5 "/>
<polyline fill="none" stroke="black" points="243,-283.5 445,-283.5 "/>
<text text-anchor="start" x="251" y="-266.9" font-family="Times New Roman,serif" font-size="14.00">_layout</text>
<text text-anchor="start" x="251" y="-250.9" font-family="Times New Roman,serif" font-size="14.00">_run_process_action_callbacks</text>
</g>
<!-- ApplicationController -->
<g id="node3" class="node"><title>ApplicationController</title>
<polyline fill="none" stroke="black" points="673,-309.5 851,-309.5 "/>
<path fill="none" stroke="black" d="M851,-309.5C857,-309.5 863,-315.5 863,-321.5"/>
<polyline fill="none" stroke="black" points="863,-321.5 863,-473.5 "/>
<path fill="none" stroke="black" d="M863,-473.5C863,-479.5 857,-485.5 851,-485.5"/>
<polyline fill="none" stroke="black" points="851,-485.5 673,-485.5 "/>
<path fill="none" stroke="black" d="M673,-485.5C667,-485.5 661,-479.5 661,-473.5"/>
<polyline fill="none" stroke="black" points="661,-473.5 661,-321.5 "/>
<path fill="none" stroke="black" d="M661,-321.5C661,-315.5 667,-309.5 673,-309.5"/>
<text text-anchor="middle" x="762" y="-468.9" font-family="Times New Roman,serif" font-size="14.00">ApplicationController</text>
<polyline fill="none" stroke="black" points="661,-461.5 863,-461.5 "/>
<text text-anchor="start" x="669" y="-444.9" font-family="Times New Roman,serif" font-size="14.00">_one_time_conditions_valid_32?</text>
<text text-anchor="start" x="669" y="-428.9" font-family="Times New Roman,serif" font-size="14.00">_one_time_conditions_valid_34?</text>
<text text-anchor="start" x="669" y="-412.9" font-family="Times New Roman,serif" font-size="14.00">authorize_secretary!</text>
<text text-anchor="start" x="669" y="-396.9" font-family="Times New Roman,serif" font-size="14.00">deny_access!</text>
<text text-anchor="start" x="669" y="-380.9" font-family="Times New Roman,serif" font-size="14.00">write_access?</text>
<polyline fill="none" stroke="black" points="661,-373.5 863,-373.5 "/>
<polyline fill="none" stroke="black" points="661,-349.5 863,-349.5 "/>
<text text-anchor="start" x="669" y="-332.9" font-family="Times New Roman,serif" font-size="14.00">_layout</text>
<text text-anchor="start" x="669" y="-316.9" font-family="Times New Roman,serif" font-size="14.00">_run_process_action_callbacks</text>
</g>
<!-- AppliedMaterialsController -->
<g id="node4" class="node"><title>AppliedMaterialsController</title>
<polyline fill="none" stroke="black" points="35,-155.5 178,-155.5 "/>
<path fill="none" stroke="black" d="M178,-155.5C184,-155.5 190,-161.5 190,-167.5"/>
<polyline fill="none" stroke="black" points="190,-167.5 190,-319.5 "/>
<path fill="none" stroke="black" d="M190,-319.5C190,-325.5 184,-331.5 178,-331.5"/>
<polyline fill="none" stroke="black" points="178,-331.5 35,-331.5 "/>
<path fill="none" stroke="black" d="M35,-331.5C29,-331.5 23,-325.5 23,-319.5"/>
<polyline fill="none" stroke="black" points="23,-319.5 23,-167.5 "/>
<path fill="none" stroke="black" d="M23,-167.5C23,-161.5 29,-155.5 35,-155.5"/>
<text text-anchor="middle" x="106.5" y="-314.9" font-family="Times New Roman,serif" font-size="14.00">AppliedMaterialsController</text>
<polyline fill="none" stroke="black" points="23,-307.5 190,-307.5 "/>
<text text-anchor="start" x="31" y="-290.9" font-family="Times New Roman,serif" font-size="14.00">create</text>
<text text-anchor="start" x="31" y="-274.9" font-family="Times New Roman,serif" font-size="14.00">destroy</text>
<text text-anchor="start" x="31" y="-258.9" font-family="Times New Roman,serif" font-size="14.00">edit</text>
<text text-anchor="start" x="31" y="-242.9" font-family="Times New Roman,serif" font-size="14.00">index</text>
<text text-anchor="start" x="31" y="-226.9" font-family="Times New Roman,serif" font-size="14.00">new</text>
<text text-anchor="start" x="31" y="-210.9" font-family="Times New Roman,serif" font-size="14.00">update</text>
<polyline fill="none" stroke="black" points="23,-203.5 190,-203.5 "/>
<polyline fill="none" stroke="black" points="23,-179.5 190,-179.5 "/>
<text text-anchor="start" x="31" y="-162.9" font-family="Times New Roman,serif" font-size="14.00">_layout</text>
</g>
<!-- CustomersController -->
<g id="node5" class="node"><title>CustomersController</title>
<polyline fill="none" stroke="black" points="255,-507.5 433,-507.5 "/>
<path fill="none" stroke="black" d="M433,-507.5C439,-507.5 445,-513.5 445,-519.5"/>
<polyline fill="none" stroke="black" points="445,-519.5 445,-735.5 "/>
<path fill="none" stroke="black" d="M445,-735.5C445,-741.5 439,-747.5 433,-747.5"/>
<polyline fill="none" stroke="black" points="433,-747.5 255,-747.5 "/>
<path fill="none" stroke="black" d="M255,-747.5C249,-747.5 243,-741.5 243,-735.5"/>
<polyline fill="none" stroke="black" points="243,-735.5 243,-519.5 "/>
<path fill="none" stroke="black" d="M243,-519.5C243,-513.5 249,-507.5 255,-507.5"/>
<text text-anchor="middle" x="344" y="-730.9" font-family="Times New Roman,serif" font-size="14.00">CustomersController</text>
<polyline fill="none" stroke="black" points="243,-723.5 445,-723.5 "/>
<text text-anchor="start" x="251" y="-706.9" font-family="Times New Roman,serif" font-size="14.00">_one_time_conditions_valid_40?</text>
<text text-anchor="start" x="251" y="-690.9" font-family="Times New Roman,serif" font-size="14.00">create</text>
<text text-anchor="start" x="251" y="-674.9" font-family="Times New Roman,serif" font-size="14.00">destroy</text>
<text text-anchor="start" x="251" y="-658.9" font-family="Times New Roman,serif" font-size="14.00">edit</text>
<text text-anchor="start" x="251" y="-642.9" font-family="Times New Roman,serif" font-size="14.00">index</text>
<text text-anchor="start" x="251" y="-626.9" font-family="Times New Roman,serif" font-size="14.00">new</text>
<text text-anchor="start" x="251" y="-610.9" font-family="Times New Roman,serif" font-size="14.00">show</text>
<text text-anchor="start" x="251" y="-594.9" font-family="Times New Roman,serif" font-size="14.00">synchronize</text>
<text text-anchor="start" x="251" y="-578.9" font-family="Times New Roman,serif" font-size="14.00">update</text>
<polyline fill="none" stroke="black" points="243,-571.5 445,-571.5 "/>
<polyline fill="none" stroke="black" points="243,-547.5 445,-547.5 "/>
<text text-anchor="start" x="251" y="-530.9" font-family="Times New Roman,serif" font-size="14.00">_layout</text>
<text text-anchor="start" x="251" y="-514.9" font-family="Times New Roman,serif" font-size="14.00">_run_process_action_callbacks</text>
</g>
<!-- MaterialsController -->
<g id="node6" class="node"><title>MaterialsController</title>
<polyline fill="none" stroke="black" points="79,-661.5 178,-661.5 "/>
<path fill="none" stroke="black" d="M178,-661.5C184,-661.5 190,-667.5 190,-673.5"/>
<polyline fill="none" stroke="black" points="190,-673.5 190,-841.5 "/>
<path fill="none" stroke="black" d="M190,-841.5C190,-847.5 184,-853.5 178,-853.5"/>
<polyline fill="none" stroke="black" points="178,-853.5 79,-853.5 "/>
<path fill="none" stroke="black" d="M79,-853.5C73,-853.5 67,-847.5 67,-841.5"/>
<polyline fill="none" stroke="black" points="67,-841.5 67,-673.5 "/>
<path fill="none" stroke="black" d="M67,-673.5C67,-667.5 73,-661.5 79,-661.5"/>
<text text-anchor="middle" x="128.5" y="-836.9" font-family="Times New Roman,serif" font-size="14.00">MaterialsController</text>
<polyline fill="none" stroke="black" points="67,-829.5 190,-829.5 "/>
<text text-anchor="start" x="75" y="-812.9" font-family="Times New Roman,serif" font-size="14.00">create</text>
<text text-anchor="start" x="75" y="-796.9" font-family="Times New Roman,serif" font-size="14.00">destroy</text>
<text text-anchor="start" x="75" y="-780.9" font-family="Times New Roman,serif" font-size="14.00">edit</text>
<text text-anchor="start" x="75" y="-764.9" font-family="Times New Roman,serif" font-size="14.00">index</text>
<text text-anchor="start" x="75" y="-748.9" font-family="Times New Roman,serif" font-size="14.00">new</text>
<text text-anchor="start" x="75" y="-732.9" font-family="Times New Roman,serif" font-size="14.00">show</text>
<text text-anchor="start" x="75" y="-716.9" font-family="Times New Roman,serif" font-size="14.00">update</text>
<polyline fill="none" stroke="black" points="67,-709.5 190,-709.5 "/>
<polyline fill="none" stroke="black" points="67,-685.5 190,-685.5 "/>
<text text-anchor="start" x="75" y="-668.9" font-family="Times New Roman,serif" font-size="14.00">_layout</text>
</g>
<!-- OrdersController -->
<g id="node7" class="node"><title>OrdersController</title>
<polyline fill="none" stroke="black" points="255,-1.5 343,-1.5 "/>
<path fill="none" stroke="black" d="M343,-1.5C349,-1.5 355,-7.5 355,-13.5"/>
<polyline fill="none" stroke="black" points="355,-13.5 355,-197.5 "/>
<path fill="none" stroke="black" d="M355,-197.5C355,-203.5 349,-209.5 343,-209.5"/>
<polyline fill="none" stroke="black" points="343,-209.5 255,-209.5 "/>
<path fill="none" stroke="black" d="M255,-209.5C249,-209.5 243,-203.5 243,-197.5"/>
<polyline fill="none" stroke="black" points="243,-197.5 243,-13.5 "/>
<path fill="none" stroke="black" d="M243,-13.5C243,-7.5 249,-1.5 255,-1.5"/>
<text text-anchor="middle" x="299" y="-192.9" font-family="Times New Roman,serif" font-size="14.00">OrdersController</text>
<polyline fill="none" stroke="black" points="243,-185.5 355,-185.5 "/>
<text text-anchor="start" x="251" y="-168.9" font-family="Times New Roman,serif" font-size="14.00">add_material</text>
<text text-anchor="start" x="251" y="-152.9" font-family="Times New Roman,serif" font-size="14.00">create</text>
<text text-anchor="start" x="251" y="-136.9" font-family="Times New Roman,serif" font-size="14.00">destroy</text>
<text text-anchor="start" x="251" y="-120.9" font-family="Times New Roman,serif" font-size="14.00">edit</text>
<text text-anchor="start" x="251" y="-104.9" font-family="Times New Roman,serif" font-size="14.00">index</text>
<text text-anchor="start" x="251" y="-88.9" font-family="Times New Roman,serif" font-size="14.00">new</text>
<text text-anchor="start" x="251" y="-72.9" font-family="Times New Roman,serif" font-size="14.00">show</text>
<text text-anchor="start" x="251" y="-56.9" font-family="Times New Roman,serif" font-size="14.00">update</text>
<polyline fill="none" stroke="black" points="243,-49.5 355,-49.5 "/>
<polyline fill="none" stroke="black" points="243,-25.5 355,-25.5 "/>
<text text-anchor="start" x="251" y="-8.9" font-family="Times New Roman,serif" font-size="14.00">_layout</text>
</g>
<!-- SessionsController -->
<g id="node8" class="node"><title>SessionsController</title>
<polyline fill="none" stroke="black" points="13,-23.5 111,-23.5 "/>
<path fill="none" stroke="black" d="M111,-23.5C117,-23.5 123,-29.5 123,-35.5"/>
<polyline fill="none" stroke="black" points="123,-35.5 123,-107.5 "/>
<path fill="none" stroke="black" d="M123,-107.5C123,-113.5 117,-119.5 111,-119.5"/>
<polyline fill="none" stroke="black" points="111,-119.5 13,-119.5 "/>
<path fill="none" stroke="black" d="M13,-119.5C7,-119.5 1,-113.5 1,-107.5"/>
<polyline fill="none" stroke="black" points="1,-107.5 1,-35.5 "/>
<path fill="none" stroke="black" d="M1,-35.5C1,-29.5 7,-23.5 13,-23.5"/>
<text text-anchor="middle" x="62" y="-102.9" font-family="Times New Roman,serif" font-size="14.00">SessionsController</text>
<polyline fill="none" stroke="black" points="1,-95.5 123,-95.5 "/>
<text text-anchor="start" x="9" y="-78.9" font-family="Times New Roman,serif" font-size="14.00">create</text>
<polyline fill="none" stroke="black" points="1,-71.5 123,-71.5 "/>
<polyline fill="none" stroke="black" points="1,-47.5 123,-47.5 "/>
<text text-anchor="start" x="9" y="-30.9" font-family="Times New Roman,serif" font-size="14.00">_layout</text>
</g>
<!-- TimeEntriesController -->
<g id="node9" class="node"><title>TimeEntriesController</title>
<polyline fill="none" stroke="black" points="497,-243.5 613,-243.5 "/>
<path fill="none" stroke="black" d="M613,-243.5C619,-243.5 625,-249.5 625,-255.5"/>
<polyline fill="none" stroke="black" points="625,-255.5 625,-503.5 "/>
<path fill="none" stroke="black" d="M625,-503.5C625,-509.5 619,-515.5 613,-515.5"/>
<polyline fill="none" stroke="black" points="613,-515.5 497,-515.5 "/>
<path fill="none" stroke="black" d="M497,-515.5C491,-515.5 485,-509.5 485,-503.5"/>
<polyline fill="none" stroke="black" points="485,-503.5 485,-255.5 "/>
<path fill="none" stroke="black" d="M485,-255.5C485,-249.5 491,-243.5 497,-243.5"/>
<text text-anchor="middle" x="555" y="-498.9" font-family="Times New Roman,serif" font-size="14.00">TimeEntriesController</text>
<polyline fill="none" stroke="black" points="485,-491.5 625,-491.5 "/>
<text text-anchor="start" x="493" y="-474.9" font-family="Times New Roman,serif" font-size="14.00">create</text>
<text text-anchor="start" x="493" y="-458.9" font-family="Times New Roman,serif" font-size="14.00">destroy</text>
<text text-anchor="start" x="493" y="-442.9" font-family="Times New Roman,serif" font-size="14.00">destroy_all</text>
<text text-anchor="start" x="493" y="-426.9" font-family="Times New Roman,serif" font-size="14.00">edit</text>
<text text-anchor="start" x="493" y="-410.9" font-family="Times New Roman,serif" font-size="14.00">index</text>
<text text-anchor="start" x="493" y="-394.9" font-family="Times New Roman,serif" font-size="14.00">new</text>
<text text-anchor="start" x="493" y="-378.9" font-family="Times New Roman,serif" font-size="14.00">remove_hashcode</text>
<text text-anchor="start" x="493" y="-362.9" font-family="Times New Roman,serif" font-size="14.00">show</text>
<text text-anchor="start" x="493" y="-346.9" font-family="Times New Roman,serif" font-size="14.00">unassigned</text>
<text text-anchor="start" x="493" y="-330.9" font-family="Times New Roman,serif" font-size="14.00">update</text>
<polyline fill="none" stroke="black" points="485,-323.5 625,-323.5 "/>
<polyline fill="none" stroke="black" points="485,-299.5 625,-299.5 "/>
<text text-anchor="start" x="493" y="-282.9" font-family="Times New Roman,serif" font-size="14.00">_layout</text>
<text text-anchor="start" x="493" y="-266.9" font-family="Times New Roman,serif" font-size="14.00">create_by_html</text>
<text text-anchor="start" x="493" y="-250.9" font-family="Times New Roman,serif" font-size="14.00">create_by_json</text>
</g>
<!-- TimeEntryTypesController -->
<g id="node10" class="node"><title>TimeEntryTypesController</title>
<polyline fill="none" stroke="black" points="35,-375.5 178,-375.5 "/>
<path fill="none" stroke="black" d="M178,-375.5C184,-375.5 190,-381.5 190,-387.5"/>
<polyline fill="none" stroke="black" points="190,-387.5 190,-587.5 "/>
<path fill="none" stroke="black" d="M190,-587.5C190,-593.5 184,-599.5 178,-599.5"/>
<polyline fill="none" stroke="black" points="178,-599.5 35,-599.5 "/>
<path fill="none" stroke="black" d="M35,-599.5C29,-599.5 23,-593.5 23,-587.5"/>
<polyline fill="none" stroke="black" points="23,-587.5 23,-387.5 "/>
<path fill="none" stroke="black" d="M23,-387.5C23,-381.5 29,-375.5 35,-375.5"/>
<text text-anchor="middle" x="106.5" y="-582.9" font-family="Times New Roman,serif" font-size="14.00">TimeEntryTypesController</text>
<polyline fill="none" stroke="black" points="23,-575.5 190,-575.5 "/>
<text text-anchor="start" x="31" y="-558.9" font-family="Times New Roman,serif" font-size="14.00">add_material</text>
<text text-anchor="start" x="31" y="-542.9" font-family="Times New Roman,serif" font-size="14.00">create</text>
<text text-anchor="start" x="31" y="-526.9" font-family="Times New Roman,serif" font-size="14.00">destroy</text>
<text text-anchor="start" x="31" y="-510.9" font-family="Times New Roman,serif" font-size="14.00">edit</text>
<text text-anchor="start" x="31" y="-494.9" font-family="Times New Roman,serif" font-size="14.00">index</text>
<text text-anchor="start" x="31" y="-478.9" font-family="Times New Roman,serif" font-size="14.00">new</text>
<text text-anchor="start" x="31" y="-462.9" font-family="Times New Roman,serif" font-size="14.00">show</text>
<text text-anchor="start" x="31" y="-446.9" font-family="Times New Roman,serif" font-size="14.00">synchronize</text>
<text text-anchor="start" x="31" y="-430.9" font-family="Times New Roman,serif" font-size="14.00">update</text>
<polyline fill="none" stroke="black" points="23,-423.5 190,-423.5 "/>
<polyline fill="none" stroke="black" points="23,-399.5 190,-399.5 "/>
<text text-anchor="start" x="31" y="-382.9" font-family="Times New Roman,serif" font-size="14.00">_layout</text>
</g>
<!-- TimeEntryTypeMaterialsController -->
<g id="node11" class="node"><title>TimeEntryTypeMaterialsController</title>
<polyline fill="none" stroke="black" points="673,-67.5 860,-67.5 "/>
<path fill="none" stroke="black" d="M860,-67.5C866,-67.5 872,-73.5 872,-79.5"/>
<polyline fill="none" stroke="black" points="872,-79.5 872,-247.5 "/>
<path fill="none" stroke="black" d="M872,-247.5C872,-253.5 866,-259.5 860,-259.5"/>
<polyline fill="none" stroke="black" points="860,-259.5 673,-259.5 "/>
<path fill="none" stroke="black" d="M673,-259.5C667,-259.5 661,-253.5 661,-247.5"/>
<polyline fill="none" stroke="black" points="661,-247.5 661,-79.5 "/>
<path fill="none" stroke="black" d="M661,-79.5C661,-73.5 667,-67.5 673,-67.5"/>
<text text-anchor="middle" x="766.5" y="-242.9" font-family="Times New Roman,serif" font-size="14.00">TimeEntryTypeMaterialsController</text>
<polyline fill="none" stroke="black" points="661,-235.5 872,-235.5 "/>
<text text-anchor="start" x="669" y="-218.9" font-family="Times New Roman,serif" font-size="14.00">create</text>
<text text-anchor="start" x="669" y="-202.9" font-family="Times New Roman,serif" font-size="14.00">destroy</text>
<text text-anchor="start" x="669" y="-186.9" font-family="Times New Roman,serif" font-size="14.00">edit</text>
<text text-anchor="start" x="669" y="-170.9" font-family="Times New Roman,serif" font-size="14.00">index</text>
<text text-anchor="start" x="669" y="-154.9" font-family="Times New Roman,serif" font-size="14.00">new</text>
<text text-anchor="start" x="669" y="-138.9" font-family="Times New Roman,serif" font-size="14.00">show</text>
<text text-anchor="start" x="669" y="-122.9" font-family="Times New Roman,serif" font-size="14.00">update</text>
<polyline fill="none" stroke="black" points="661,-115.5 872,-115.5 "/>
<polyline fill="none" stroke="black" points="661,-91.5 872,-91.5 "/>
<text text-anchor="start" x="669" y="-74.9" font-family="Times New Roman,serif" font-size="14.00">_layout</text>
</g>
<!-- UsersController -->
<g id="node12" class="node"><title>UsersController</title>
<polyline fill="none" stroke="black" points="541,-551.5 719,-551.5 "/>
<path fill="none" stroke="black" d="M719,-551.5C725,-551.5 731,-557.5 731,-563.5"/>
<polyline fill="none" stroke="black" points="731,-563.5 731,-763.5 "/>
<path fill="none" stroke="black" d="M731,-763.5C731,-769.5 725,-775.5 719,-775.5"/>
<polyline fill="none" stroke="black" points="719,-775.5 541,-775.5 "/>
<path fill="none" stroke="black" d="M541,-775.5C535,-775.5 529,-769.5 529,-763.5"/>
<polyline fill="none" stroke="black" points="529,-763.5 529,-563.5 "/>
<path fill="none" stroke="black" d="M529,-563.5C529,-557.5 535,-551.5 541,-551.5"/>
<text text-anchor="middle" x="630" y="-758.9" font-family="Times New Roman,serif" font-size="14.00">UsersController</text>
<polyline fill="none" stroke="black" points="529,-751.5 731,-751.5 "/>
<text text-anchor="start" x="537" y="-734.9" font-family="Times New Roman,serif" font-size="14.00">_one_time_conditions_valid_50?</text>
<text text-anchor="start" x="537" y="-718.9" font-family="Times New Roman,serif" font-size="14.00">create</text>
<text text-anchor="start" x="537" y="-702.9" font-family="Times New Roman,serif" font-size="14.00">destroy</text>
<text text-anchor="start" x="537" y="-686.9" font-family="Times New Roman,serif" font-size="14.00">edit</text>
<text text-anchor="start" x="537" y="-670.9" font-family="Times New Roman,serif" font-size="14.00">index</text>
<text text-anchor="start" x="537" y="-654.9" font-family="Times New Roman,serif" font-size="14.00">new</text>
<text text-anchor="start" x="537" y="-638.9" font-family="Times New Roman,serif" font-size="14.00">show</text>
<text text-anchor="start" x="537" y="-622.9" font-family="Times New Roman,serif" font-size="14.00">update</text>
<polyline fill="none" stroke="black" points="529,-615.5 731,-615.5 "/>
<polyline fill="none" stroke="black" points="529,-591.5 731,-591.5 "/>
<text text-anchor="start" x="537" y="-574.9" font-family="Times New Roman,serif" font-size="14.00">_layout</text>
<text text-anchor="start" x="537" y="-558.9" font-family="Times New Roman,serif" font-size="14.00">_run_process_action_callbacks</text>
</g>
</g>
</svg>
