<?xml version="1.0" encoding="UTF-8" standalone="no"?>
<!DOCTYPE svg PUBLIC "-//W3C//DTD SVG 1.1//EN"
 "http://www.w3.org/Graphics/SVG/1.1/DTD/svg11.dtd">
<!-- Generated by graphviz version 2.26.3 (20100126.1600)
 -->
<!-- Title: models_diagram Pages: 1 -->
<svg width="728pt" height="308pt"
 viewBox="0.00 0.00 728.00 308.00" xmlns="http://www.w3.org/2000/svg" xmlns:xlink="http://www.w3.org/1999/xlink">
<g id="graph1" class="graph" transform="scale(1 1) rotate(0) translate(4 304)">
<title>models_diagram</title>
<polygon fill="white" stroke="white" points="-4,5 -4,-304 725,-304 725,5 -4,5"/>
<!-- _diagram_info -->
<g id="node1" class="node"><title>_diagram_info</title>
<text text-anchor="start" x="35.5" y="-283.8" font-family="Times New Roman,serif" font-size="13.00">Models diagram</text>
<text text-anchor="start" x="35.5" y="-268.8" font-family="Times New Roman,serif" font-size="13.00">Date: May 17 2011 &#45; 03:15</text>
<text text-anchor="start" x="35.5" y="-253.8" font-family="Times New Roman,serif" font-size="13.00">Migration version: 20110503185724</text>
<text text-anchor="start" x="35.5" y="-238.8" font-family="Times New Roman,serif" font-size="13.00">Generated by RailRoady 1.0.2</text>
<text text-anchor="start" x="35.5" y="-223.8" font-family="Times New Roman,serif" font-size="13.00">http://railroady.prestonlee.com</text>
</g>
<!-- Address -->
<g id="node2" class="node"><title>Address</title>
<ellipse fill="none" stroke="black" cx="297" cy="-258" rx="42.9325" ry="18"/>
<text text-anchor="middle" x="297" y="-253.4" font-family="Times New Roman,serif" font-size="14.00">Address</text>
</g>
<!-- Customer -->
<g id="node4" class="node"><title>Customer</title>
<ellipse fill="none" stroke="black" cx="328" cy="-162" rx="47.1269" ry="18"/>
<text text-anchor="middle" x="328" y="-157.4" font-family="Times New Roman,serif" font-size="14.00">Customer</text>
</g>
<!-- Address&#45;&gt;Customer -->
<g id="edge4" class="edge"><title>Address&#45;&gt;Customer</title>
<path fill="none" stroke="black" d="M305.317,-232.245C309.567,-219.084 314.741,-203.059 319.075,-189.639"/>
<ellipse fill="none" stroke="black" cx="304.06" cy="-236.137" rx="4.00001" ry="4.00001"/>
<polygon fill="black" stroke="black" points="319.122,-189.492 326.478,-181.359 320.659,-184.734 322.195,-179.976 322.195,-179.976 322.195,-179.976 320.659,-184.734 317.913,-178.593 319.122,-189.492 319.122,-189.492"/>
</g>
<!-- Order -->
<g id="node9" class="node"><title>Order</title>
<ellipse fill="none" stroke="black" cx="186" cy="-90" rx="33.0404" ry="18"/>
<text text-anchor="middle" x="186" y="-85.4" font-family="Times New Roman,serif" font-size="14.00">Order</text>
</g>
<!-- Address&#45;&gt;Order -->
<g id="edge2" class="edge"><title>Address&#45;&gt;Order</title>
<path fill="none" stroke="black" d="M280.772,-233.438C260.013,-202.019 224.221,-147.849 203.067,-115.831"/>
<ellipse fill="none" stroke="black" cx="283.126" cy="-237.001" rx="4.00002" ry="4.00002"/>
<polygon fill="black" stroke="black" points="203.025,-115.768 201.267,-104.944 200.269,-111.596 197.513,-107.425 197.513,-107.425 197.513,-107.425 200.269,-111.596 193.758,-109.905 203.025,-115.768 203.025,-115.768"/>
</g>
<!-- AppliedMaterial -->
<g id="node3" class="node"><title>AppliedMaterial</title>
<ellipse fill="none" stroke="black" cx="70" cy="-18" rx="69.9366" ry="18"/>
<text text-anchor="middle" x="70" y="-13.4" font-family="Times New Roman,serif" font-size="14.00">AppliedMaterial</text>
</g>
<!-- Customer&#45;&gt;Order -->
<g id="edge8" class="edge"><title>Customer&#45;&gt;Order</title>
<path fill="none" stroke="black" d="M292.305,-143.901C269.976,-132.579 241.397,-118.088 219.496,-106.984"/>
<ellipse fill="none" stroke="black" cx="296.038" cy="-145.794" rx="4.00002" ry="4.00002"/>
<polygon fill="black" stroke="black" points="219.475,-106.973 212.591,-98.4373 215.015,-104.712 210.556,-102.451 210.556,-102.451 210.556,-102.451 215.015,-104.712 208.521,-106.464 219.475,-106.973 219.475,-106.973"/>
</g>
<!-- TimeEntry -->
<g id="node11" class="node"><title>TimeEntry</title>
<ellipse fill="none" stroke="black" cx="426" cy="-18" rx="49.8134" ry="18"/>
<text text-anchor="middle" x="426" y="-13.4" font-family="Times New Roman,serif" font-size="14.00">TimeEntry</text>
</g>
<!-- Customer&#45;&gt;TimeEntry -->
<g id="edge6" class="edge"><title>Customer&#45;&gt;TimeEntry</title>
<path fill="none" stroke="black" d="M364.205,-143.716C378.562,-134.772 394,-122.731 404,-108 416.443,-89.67 421.865,-65.0116 424.219,-46.1405"/>
<ellipse fill="none" stroke="black" cx="360.707" cy="-145.805" rx="4.00002" ry="4.00002"/>
<polygon fill="black" stroke="black" points="424.233,-46.0071 429.735,-36.5215 424.746,-41.0335 425.259,-36.0599 425.259,-36.0599 425.259,-36.0599 424.746,-41.0335 420.783,-35.5983 424.233,-46.0071 424.233,-46.0071"/>
</g>
<!-- FieldWorker -->
<g id="node5" class="node"><title>FieldWorker</title>
<ellipse fill="none" stroke="black" cx="662" cy="-18" rx="57.8626" ry="18"/>
<text text-anchor="middle" x="662" y="-13.4" font-family="Times New Roman,serif" font-size="14.00">FieldWorker</text>
</g>
<!-- Geocoder -->
<g id="node6" class="node"><title>Geocoder</title>
<polygon fill="none" stroke="black" points="588,-276 516,-276 516,-240 588,-240 588,-276"/>
<text text-anchor="middle" x="552" y="-253.4" font-family="Times New Roman,serif" font-size="14.00">Geocoder</text>
</g>
<!-- GpsPosition -->
<g id="node7" class="node"><title>GpsPosition</title>
<ellipse fill="none" stroke="black" cx="441" cy="-258" rx="57.1889" ry="18"/>
<text text-anchor="middle" x="441" y="-253.4" font-family="Times New Roman,serif" font-size="14.00">GpsPosition</text>
</g>
<!-- GpsPosition&#45;&gt;Customer -->
<g id="edge14" class="edge"><title>GpsPosition&#45;&gt;Customer</title>
<path fill="none" stroke="black" d="M414.927,-235.85C396.569,-220.254 372.103,-199.468 353.805,-183.923"/>
<ellipse fill="none" stroke="black" cx="418.01" cy="-238.468" rx="4.00002" ry="4.00002"/>
<ellipse fill="black" stroke="black" cx="350.414" cy="-181.042" rx="4.00002" ry="4.00002"/>
</g>
<!-- GpsPosition&#45;&gt;TimeEntry -->
<g id="edge12" class="edge"><title>GpsPosition&#45;&gt;TimeEntry</title>
<path fill="none" stroke="black" d="M439.36,-231.754C436.475,-185.605 430.528,-90.4481 427.642,-44.2766"/>
<ellipse fill="none" stroke="black" cx="439.623" cy="-235.969" rx="4" ry="4"/>
<ellipse fill="black" stroke="black" cx="427.39" cy="-40.2405" rx="4" ry="4"/>
</g>
<!-- Material -->
<g id="node8" class="node"><title>Material</title>
<ellipse fill="none" stroke="black" cx="72" cy="-90" rx="40.92" ry="18"/>
<text text-anchor="middle" x="72" y="-85.4" font-family="Times New Roman,serif" font-size="14.00">Material</text>
</g>
<!-- Material&#45;&gt;AppliedMaterial -->
<g id="edge18" class="edge"><title>Material&#45;&gt;AppliedMaterial</title>
<path fill="none" stroke="black" d="M71.2726,-63.8144C71.1188,-58.2775 70.9557,-52.4053 70.7994,-46.7785"/>
<ellipse fill="none" stroke="black" cx="71.3842" cy="-67.8329" rx="4" ry="4"/>
<polygon fill="black" stroke="black" points="70.7892,-46.4094 75.0097,-36.2883 70.6504,-41.4113 70.5115,-36.4133 70.5115,-36.4133 70.5115,-36.4133 70.6504,-41.4113 66.0132,-36.5383 70.7892,-46.4094 70.7892,-46.4094"/>
</g>
<!-- Material&#45;&gt;Material -->
<g id="edge20" class="edge"><title>Material&#45;&gt;Material</title>
<path fill="none" stroke="black" d="M109.12,-103.499C121.297,-103.44 131,-98.9401 131,-90 131,-81.0599 121.297,-76.5601 109.12,-76.5006"/>
<ellipse fill="none" stroke="black" cx="104.827" cy="-103.188" rx="4" ry="4"/>
<ellipse fill="black" stroke="black" cx="104.827" cy="-76.8116" rx="4" ry="4"/>
</g>
<!-- TimeEntryTypeMaterial -->
<g id="node13" class="node"><title>TimeEntryTypeMaterial</title>
<ellipse fill="none" stroke="black" cx="258" cy="-18" rx="99.9522" ry="18"/>
<text text-anchor="middle" x="258" y="-13.4" font-family="Times New Roman,serif" font-size="14.00">TimeEntryTypeMaterial</text>
</g>
<!-- Material&#45;&gt;TimeEntryTypeMaterial -->
<g id="edge16" class="edge"><title>Material&#45;&gt;TimeEntryTypeMaterial</title>
<path fill="none" stroke="black" d="M110.645,-75.0407C138.286,-64.3409 175.798,-49.8202 206.056,-38.1075"/>
<ellipse fill="none" stroke="black" cx="106.862" cy="-76.5048" rx="4.00001" ry="4.00001"/>
<polygon fill="black" stroke="black" points="206.277,-38.0218 217.227,-38.6084 210.94,-36.2168 215.603,-34.4118 215.603,-34.4118 215.603,-34.4118 210.94,-36.2168 213.978,-30.2152 206.277,-38.0218 206.277,-38.0218"/>
</g>
<!-- Order&#45;&gt;AppliedMaterial -->
<g id="edge22" class="edge"><title>Order&#45;&gt;AppliedMaterial</title>
<path fill="none" stroke="black" d="M157.159,-72.0988C141.634,-62.4626 122.342,-50.488 105.857,-40.2563"/>
<ellipse fill="none" stroke="black" cx="160.783" cy="-74.3479" rx="4.00002" ry="4.00002"/>
<polygon fill="black" stroke="black" points="105.526,-40.0508 99.403,-30.9538 101.278,-37.414 97.0299,-34.7772 97.0299,-34.7772 97.0299,-34.7772 101.278,-37.414 94.6567,-38.6006 105.526,-40.0508 105.526,-40.0508"/>
</g>
<!-- Order&#45;&gt;TimeEntry -->
<g id="edge24" class="edge"><title>Order&#45;&gt;TimeEntry</title>
<path fill="none" stroke="black" d="M218.975,-75.3155C222.004,-74.1346 225.044,-73.0097 228,-72 288.39,-51.3717 305.578,-53.3149 367,-36 370.614,-34.9812 374.345,-33.9038 378.093,-32.803"/>
<ellipse fill="none" stroke="black" cx="215.233" cy="-76.8308" rx="4.00002" ry="4.00002"/>
<polygon fill="black" stroke="black" points="378.4,-32.7115 389.268,-34.1715 383.192,-31.2851 387.985,-29.8586 387.985,-29.8586 387.985,-29.8586 383.192,-31.2851 386.701,-25.5456 378.4,-32.7115 378.4,-32.7115"/>
</g>
<!-- Secretary -->
<g id="node10" class="node"><title>Secretary</title>
<ellipse fill="none" stroke="black" cx="540" cy="-18" rx="45.7889" ry="18"/>
<text text-anchor="middle" x="540" y="-13.4" font-family="Times New Roman,serif" font-size="14.00">Secretary</text>
</g>
<!-- TimeEntryType -->
<g id="node12" class="node"><title>TimeEntryType</title>
<ellipse fill="none" stroke="black" cx="307" cy="-90" rx="69.7653" ry="18"/>
<text text-anchor="middle" x="307" y="-85.4" font-family="Times New Roman,serif" font-size="14.00">TimeEntryType</text>
</g>
<!-- TimeEntryType&#45;&gt;TimeEntry -->
<g id="edge32" class="edge"><title>TimeEntryType&#45;&gt;TimeEntry</title>
<path fill="none" stroke="black" d="M341.805,-68.9417C357.412,-59.4985 375.776,-48.3877 391.364,-38.9565"/>
<ellipse fill="none" stroke="black" cx="338.022" cy="-71.2301" rx="4.00002" ry="4.00002"/>
<polygon fill="black" stroke="black" points="391.623,-38.7996 402.508,-37.4731 395.901,-36.2113 400.179,-33.6229 400.179,-33.6229 400.179,-33.6229 395.901,-36.2113 397.849,-29.7728 391.623,-38.7996 391.623,-38.7996"/>
</g>
<!-- TimeEntryType&#45;&gt;TimeEntryType -->
<g id="edge30" class="edge"><title>TimeEntryType&#45;&gt;TimeEntryType</title>
<path fill="none" stroke="black" d="M362.967,-103.496C380.846,-103.34 395,-98.8412 395,-90 395,-81.1588 380.846,-76.6602 362.967,-76.5042"/>
<ellipse fill="none" stroke="black" cx="358.526" cy="-103.373" rx="4" ry="4"/>
<ellipse fill="black" stroke="black" cx="358.526" cy="-76.6273" rx="4" ry="4"/>
</g>
<!-- TimeEntryType&#45;&gt;TimeEntryTypeMaterial -->
<g id="edge28" class="edge"><title>TimeEntryType&#45;&gt;TimeEntryTypeMaterial</title>
<path fill="none" stroke="black" d="M290.295,-65.4542C285.689,-58.6863 280.673,-51.3153 275.997,-44.4449"/>
<ellipse fill="none" stroke="black" cx="292.637" cy="-68.8954" rx="4.00002" ry="4.00002"/>
<polygon fill="black" stroke="black" points="275.94,-44.3603 274.034,-33.5613 273.127,-40.2267 270.313,-36.0931 270.313,-36.0931 270.313,-36.0931 273.127,-40.2267 266.593,-38.6249 275.94,-44.3603 275.94,-44.3603"/>
</g>
<!-- User -->
<g id="node14" class="node"><title>User</title>
<ellipse fill="none" stroke="black" cx="540" cy="-90" rx="28.8453" ry="18"/>
<text text-anchor="middle" x="540" y="-85.4" font-family="Times New Roman,serif" font-size="14.00">User</text>
</g>
<!-- User&#45;&gt;FieldWorker -->
<g id="edge10" class="edge"><title>User&#45;&gt;FieldWorker</title>
<path fill="none" stroke="black" d="M561.251,-77.4586C581.595,-65.4521 612.387,-47.2797 634.573,-34.1862"/>
</g>
<!-- User&#45;&gt;Secretary -->
<g id="edge26" class="edge"><title>User&#45;&gt;Secretary</title>
<path fill="none" stroke="black" d="M540,-71.8314C540,-61 540,-47.2876 540,-36.4133"/>
</g>
<!-- User&#45;&gt;TimeEntry -->
<g id="edge34" class="edge"><title>User&#45;&gt;TimeEntry</title>
<path fill="none" stroke="black" d="M512.497,-72.6295C496.541,-62.5524 476.33,-49.7871 459.457,-39.1307"/>
<ellipse fill="none" stroke="black" cx="516.237" cy="-74.9918" rx="4.00002" ry="4.00002"/>
<polygon fill="black" stroke="black" points="459.433,-39.1156 453.381,-29.971 455.206,-36.4457 450.978,-33.7757 450.978,-33.7757 450.978,-33.7757 455.206,-36.4457 448.575,-37.5804 459.433,-39.1156 459.433,-39.1156"/>
</g>
</g>
</svg>
