<?xml version="1.0" encoding="UTF-8" standalone="no"?>
<!DOCTYPE svg PUBLIC "-//W3C//DTD SVG 1.1//EN"
 "http://www.w3.org/Graphics/SVG/1.1/DTD/svg11.dtd">
<!-- Generated by graphviz version 2.26.3 (20100126.1600)
 -->
<!-- Title: models_diagram Pages: 1 -->
<svg width="953pt" height="620pt"
 viewBox="0.00 0.00 953.00 620.00" xmlns="http://www.w3.org/2000/svg" xmlns:xlink="http://www.w3.org/1999/xlink">
<g id="graph1" class="graph" transform="scale(1 1) rotate(0) translate(4 616)">
<title>models_diagram</title>
<polygon fill="white" stroke="white" points="-4,5 -4,-616 950,-616 950,5 -4,5"/>
<!-- _diagram_info -->
<g id="node1" class="node"><title>_diagram_info</title>
<text text-anchor="start" x="97.5" y="-580.8" font-family="Times New Roman,serif" font-size="13.00">Models diagram</text>
<text text-anchor="start" x="97.5" y="-565.8" font-family="Times New Roman,serif" font-size="13.00">Date: May 17 2011 &#45; 03:14</text>
<text text-anchor="start" x="97.5" y="-550.8" font-family="Times New Roman,serif" font-size="13.00">Migration version: 20110503185724</text>
<text text-anchor="start" x="97.5" y="-535.8" font-family="Times New Roman,serif" font-size="13.00">Generated by RailRoady 1.0.2</text>
<text text-anchor="start" x="97.5" y="-520.8" font-family="Times New Roman,serif" font-size="13.00">http://railroady.prestonlee.com</text>
</g>
<!-- Address -->
<g id="node2" class="node"><title>Address</title>
<polyline fill="none" stroke="black" points="327.5,-499 386.5,-499 "/>
<path fill="none" stroke="black" d="M386.5,-499C392.5,-499 398.5,-505 398.5,-511"/>
<polyline fill="none" stroke="black" points="398.5,-511 398.5,-599 "/>
<path fill="none" stroke="black" d="M398.5,-599C398.5,-605 392.5,-611 386.5,-611"/>
<polyline fill="none" stroke="black" points="386.5,-611 327.5,-611 "/>
<path fill="none" stroke="black" d="M327.5,-611C321.5,-611 315.5,-605 315.5,-599"/>
<polyline fill="none" stroke="black" points="315.5,-599 315.5,-511 "/>
<path fill="none" stroke="black" d="M315.5,-511C315.5,-505 321.5,-499 327.5,-499"/>
<text text-anchor="middle" x="357" y="-594.4" font-family="Times New Roman,serif" font-size="14.00">Address</text>
<polyline fill="none" stroke="black" points="315.5,-587 398.5,-587 "/>
<text text-anchor="start" x="323.5" y="-570.4" font-family="Times New Roman,serif" font-size="14.00">line1 :string</text>
<text text-anchor="start" x="323.5" y="-554.4" font-family="Times New Roman,serif" font-size="14.00">line2 :string</text>
<text text-anchor="start" x="323.5" y="-538.4" font-family="Times New Roman,serif" font-size="14.00">line3 :string</text>
<text text-anchor="start" x="323.5" y="-522.4" font-family="Times New Roman,serif" font-size="14.00">place :string</text>
<text text-anchor="start" x="323.5" y="-506.4" font-family="Times New Roman,serif" font-size="14.00">zip :integer</text>
</g>
<!-- Customer -->
<g id="node4" class="node"><title>Customer</title>
<polyline fill="none" stroke="black" points="327.5,-365 430.5,-365 "/>
<path fill="none" stroke="black" d="M430.5,-365C436.5,-365 442.5,-371 442.5,-377"/>
<polyline fill="none" stroke="black" points="442.5,-377 442.5,-449 "/>
<path fill="none" stroke="black" d="M442.5,-449C442.5,-455 436.5,-461 430.5,-461"/>
<polyline fill="none" stroke="black" points="430.5,-461 327.5,-461 "/>
<path fill="none" stroke="black" d="M327.5,-461C321.5,-461 315.5,-455 315.5,-449"/>
<polyline fill="none" stroke="black" points="315.5,-449 315.5,-377 "/>
<path fill="none" stroke="black" d="M315.5,-377C315.5,-371 321.5,-365 327.5,-365"/>
<text text-anchor="middle" x="379" y="-444.4" font-family="Times New Roman,serif" font-size="14.00">Customer</text>
<polyline fill="none" stroke="black" points="315.5,-437 442.5,-437 "/>
<text text-anchor="start" x="323.5" y="-420.4" font-family="Times New Roman,serif" font-size="14.00">first_name :string</text>
<text text-anchor="start" x="323.5" y="-404.4" font-family="Times New Roman,serif" font-size="14.00">last_name :string</text>
<text text-anchor="start" x="323.5" y="-388.4" font-family="Times New Roman,serif" font-size="14.00">phone :string</text>
<text text-anchor="start" x="323.5" y="-372.4" font-family="Times New Roman,serif" font-size="14.00">deleted_at :datetime</text>
</g>
<!-- Address&#45;&gt;Customer -->
<g id="edge4" class="edge"><title>Address&#45;&gt;Customer</title>
<path fill="none" stroke="black" d="M366.922,-490.959C367.933,-484.435 368.956,-477.831 369.956,-471.372"/>
<ellipse fill="none" stroke="black" cx="366.307" cy="-494.925" rx="4.00001" ry="4.00001"/>
<polygon fill="black" stroke="black" points="369.975,-471.254 375.953,-462.061 370.74,-466.313 371.506,-461.372 371.506,-461.372 371.506,-461.372 370.74,-466.313 367.059,-460.683 369.975,-471.254 369.975,-471.254"/>
</g>
<!-- Order -->
<g id="node9" class="node"><title>Order</title>
<polyline fill="none" stroke="black" points="190,-231 272,-231 "/>
<path fill="none" stroke="black" d="M272,-231C278,-231 284,-237 284,-243"/>
<polyline fill="none" stroke="black" points="284,-243 284,-267 "/>
<path fill="none" stroke="black" d="M284,-267C284,-273 278,-279 272,-279"/>
<polyline fill="none" stroke="black" points="272,-279 190,-279 "/>
<path fill="none" stroke="black" d="M190,-279C184,-279 178,-273 178,-267"/>
<polyline fill="none" stroke="black" points="178,-267 178,-243 "/>
<path fill="none" stroke="black" d="M178,-243C178,-237 184,-231 190,-231"/>
<text text-anchor="middle" x="231" y="-262.4" font-family="Times New Roman,serif" font-size="14.00">Order</text>
<polyline fill="none" stroke="black" points="178,-255 284,-255 "/>
<text text-anchor="start" x="186" y="-238.4" font-family="Times New Roman,serif" font-size="14.00">description :text</text>
</g>
<!-- Address&#45;&gt;Order -->
<g id="edge2" class="edge"><title>Address&#45;&gt;Order</title>
<path fill="none" stroke="black" d="M321.199,-491.244C316.205,-481.557 311.313,-471.592 307,-462 280.166,-402.327 255.288,-330.07 241.714,-288.628"/>
<ellipse fill="none" stroke="black" cx="323.179" cy="-495.041" rx="4.00002" ry="4.00002"/>
<polygon fill="black" stroke="black" points="241.685,-288.539 242.872,-277.638 240.139,-283.784 238.592,-279.03 238.592,-279.03 238.592,-279.03 240.139,-283.784 234.313,-280.421 241.685,-288.539 241.685,-288.539"/>
</g>
<!-- AppliedMaterial -->
<g id="node3" class="node"><title>AppliedMaterial</title>
<polyline fill="none" stroke="black" points="55.5,-49 136.5,-49 "/>
<path fill="none" stroke="black" d="M136.5,-49C142.5,-49 148.5,-55 148.5,-61"/>
<polyline fill="none" stroke="black" points="148.5,-61 148.5,-85 "/>
<path fill="none" stroke="black" d="M148.5,-85C148.5,-91 142.5,-97 136.5,-97"/>
<polyline fill="none" stroke="black" points="136.5,-97 55.5,-97 "/>
<path fill="none" stroke="black" d="M55.5,-97C49.5,-97 43.5,-91 43.5,-85"/>
<polyline fill="none" stroke="black" points="43.5,-85 43.5,-61 "/>
<path fill="none" stroke="black" d="M43.5,-61C43.5,-55 49.5,-49 55.5,-49"/>
<text text-anchor="middle" x="96" y="-80.4" font-family="Times New Roman,serif" font-size="14.00">AppliedMaterial</text>
<polyline fill="none" stroke="black" points="43.5,-73 148.5,-73 "/>
<text text-anchor="start" x="51.5" y="-56.4" font-family="Times New Roman,serif" font-size="14.00">amount :integer</text>
</g>
<!-- Customer&#45;&gt;Order -->
<g id="edge8" class="edge"><title>Customer&#45;&gt;Order</title>
<path fill="none" stroke="black" d="M322.787,-358.843C312.712,-348.743 302.426,-338.166 293,-328 280.829,-314.874 267.93,-299.878 257.067,-286.906"/>
<ellipse fill="none" stroke="black" cx="325.854" cy="-361.903" rx="4.00002" ry="4.00002"/>
<polygon fill="black" stroke="black" points="256.989,-286.812 254.051,-276.247 253.791,-282.968 250.592,-279.125 250.592,-279.125 250.592,-279.125 253.791,-282.968 247.133,-282.004 256.989,-286.812 256.989,-286.812"/>
</g>
<!-- TimeEntry -->
<g id="node11" class="node"><title>TimeEntry</title>
<polyline fill="none" stroke="black" points="416.5,-25 517.5,-25 "/>
<path fill="none" stroke="black" d="M517.5,-25C523.5,-25 529.5,-31 529.5,-37"/>
<polyline fill="none" stroke="black" points="529.5,-37 529.5,-109 "/>
<path fill="none" stroke="black" d="M529.5,-109C529.5,-115 523.5,-121 517.5,-121"/>
<polyline fill="none" stroke="black" points="517.5,-121 416.5,-121 "/>
<path fill="none" stroke="black" d="M416.5,-121C410.5,-121 404.5,-115 404.5,-109"/>
<polyline fill="none" stroke="black" points="404.5,-109 404.5,-37 "/>
<path fill="none" stroke="black" d="M404.5,-37C404.5,-31 410.5,-25 416.5,-25"/>
<text text-anchor="middle" x="467" y="-104.4" font-family="Times New Roman,serif" font-size="14.00">TimeEntry</text>
<polyline fill="none" stroke="black" points="404.5,-97 529.5,-97 "/>
<text text-anchor="start" x="412.5" y="-80.4" font-family="Times New Roman,serif" font-size="14.00">hashcode :string</text>
<text text-anchor="start" x="412.5" y="-64.4" font-family="Times New Roman,serif" font-size="14.00">description :text</text>
<text text-anchor="start" x="412.5" y="-48.4" font-family="Times New Roman,serif" font-size="14.00">time_start :datetime</text>
<text text-anchor="start" x="412.5" y="-32.4" font-family="Times New Roman,serif" font-size="14.00">time_stop :datetime</text>
</g>
<!-- Customer&#45;&gt;TimeEntry -->
<g id="edge6" class="edge"><title>Customer&#45;&gt;TimeEntry</title>
<path fill="none" stroke="black" d="M437.079,-358.426C444.266,-348.977 450.616,-338.718 455,-328 481.01,-264.414 479.921,-184.339 475.014,-131.056"/>
<ellipse fill="none" stroke="black" cx="434.473" cy="-361.703" rx="4.00002" ry="4.00002"/>
<polygon fill="black" stroke="black" points="475.014,-131.05 478.502,-120.654 474.519,-126.075 474.024,-121.099 474.024,-121.099 474.024,-121.099 474.519,-126.075 469.546,-121.545 475.014,-131.05 475.014,-131.05"/>
</g>
<!-- FieldWorker -->
<g id="node5" class="node"><title>FieldWorker</title>
<polyline fill="none" stroke="black" points="766.5,-1 933.5,-1 "/>
<path fill="none" stroke="black" d="M933.5,-1C939.5,-1 945.5,-7 945.5,-13"/>
<polyline fill="none" stroke="black" points="945.5,-13 945.5,-133 "/>
<path fill="none" stroke="black" d="M945.5,-133C945.5,-139 939.5,-145 933.5,-145"/>
<polyline fill="none" stroke="black" points="933.5,-145 766.5,-145 "/>
<path fill="none" stroke="black" d="M766.5,-145C760.5,-145 754.5,-139 754.5,-133"/>
<polyline fill="none" stroke="black" points="754.5,-133 754.5,-13 "/>
<path fill="none" stroke="black" d="M754.5,-13C754.5,-7 760.5,-1 766.5,-1"/>
<text text-anchor="middle" x="850" y="-128.4" font-family="Times New Roman,serif" font-size="14.00">FieldWorker</text>
<polyline fill="none" stroke="black" points="754.5,-121 945.5,-121 "/>
<text text-anchor="start" x="762.5" y="-104.4" font-family="Times New Roman,serif" font-size="14.00">email :string</text>
<text text-anchor="start" x="762.5" y="-88.4" font-family="Times New Roman,serif" font-size="14.00">encrypted_password :string</text>
<text text-anchor="start" x="762.5" y="-72.4" font-family="Times New Roman,serif" font-size="14.00">remember_created_at :datetime</text>
<text text-anchor="start" x="762.5" y="-56.4" font-family="Times New Roman,serif" font-size="14.00">password_salt :string</text>
<text text-anchor="start" x="762.5" y="-40.4" font-family="Times New Roman,serif" font-size="14.00">first_name :string</text>
<text text-anchor="start" x="762.5" y="-24.4" font-family="Times New Roman,serif" font-size="14.00">last_name :string</text>
<text text-anchor="start" x="762.5" y="-8.4" font-family="Times New Roman,serif" font-size="14.00">phone :string</text>
</g>
<!-- Geocoder -->
<g id="node6" class="node"><title>Geocoder</title>
<polygon fill="none" stroke="black" points="569.5,-531 569.5,-579 642.5,-579 642.5,-531 569.5,-531"/>
<text text-anchor="middle" x="606" y="-562.4" font-family="Times New Roman,serif" font-size="14.00">Geocoder</text>
<polyline fill="none" stroke="black" points="569.5,-555 642.5,-555 "/>
<text text-anchor="middle" x="606" y="-538.4" font-family="Times New Roman,serif" font-size="14.00"> </text>
</g>
<!-- GpsPosition -->
<g id="node7" class="node"><title>GpsPosition</title>
<polyline fill="none" stroke="black" points="447.5,-523 540.5,-523 "/>
<path fill="none" stroke="black" d="M540.5,-523C546.5,-523 552.5,-529 552.5,-535"/>
<polyline fill="none" stroke="black" points="552.5,-535 552.5,-575 "/>
<path fill="none" stroke="black" d="M552.5,-575C552.5,-581 546.5,-587 540.5,-587"/>
<polyline fill="none" stroke="black" points="540.5,-587 447.5,-587 "/>
<path fill="none" stroke="black" d="M447.5,-587C441.5,-587 435.5,-581 435.5,-575"/>
<polyline fill="none" stroke="black" points="435.5,-575 435.5,-535 "/>
<path fill="none" stroke="black" d="M435.5,-535C435.5,-529 441.5,-523 447.5,-523"/>
<text text-anchor="middle" x="494" y="-570.4" font-family="Times New Roman,serif" font-size="14.00">GpsPosition</text>
<polyline fill="none" stroke="black" points="435.5,-563 552.5,-563 "/>
<text text-anchor="start" x="443.5" y="-546.4" font-family="Times New Roman,serif" font-size="14.00">latitude :decimal</text>
<text text-anchor="start" x="443.5" y="-530.4" font-family="Times New Roman,serif" font-size="14.00">longitude :decimal</text>
</g>
<!-- GpsPosition&#45;&gt;Customer -->
<g id="edge14" class="edge"><title>GpsPosition&#45;&gt;Customer</title>
<path fill="none" stroke="black" d="M462.555,-516.172C450.376,-501.133 436.218,-483.652 423.057,-467.4"/>
<ellipse fill="none" stroke="black" cx="465.387" cy="-519.67" rx="4.00002" ry="4.00002"/>
<ellipse fill="black" stroke="black" cx="420.392" cy="-464.11" rx="4.00002" ry="4.00002"/>
</g>
<!-- GpsPosition&#45;&gt;TimeEntry -->
<g id="edge12" class="edge"><title>GpsPosition&#45;&gt;TimeEntry</title>
<path fill="none" stroke="black" d="M493.55,-514.119C492.552,-445.42 489.432,-302.503 480,-182 478.658,-164.856 476.647,-146.255 474.605,-129.355"/>
<ellipse fill="none" stroke="black" cx="493.611" cy="-518.519" rx="4" ry="4"/>
<ellipse fill="black" stroke="black" cx="474.092" cy="-125.179" rx="4.00001" ry="4.00001"/>
</g>
<!-- Material -->
<g id="node8" class="node"><title>Material</title>
<polyline fill="none" stroke="black" points="11.5,-199 130.5,-199 "/>
<path fill="none" stroke="black" d="M130.5,-199C136.5,-199 142.5,-205 142.5,-211"/>
<polyline fill="none" stroke="black" points="142.5,-211 142.5,-299 "/>
<path fill="none" stroke="black" d="M142.5,-299C142.5,-305 136.5,-311 130.5,-311"/>
<polyline fill="none" stroke="black" points="130.5,-311 11.5,-311 "/>
<path fill="none" stroke="black" d="M11.5,-311C5.5,-311 -0.5,-305 -0.5,-299"/>
<polyline fill="none" stroke="black" points="-0.5,-299 -0.5,-211 "/>
<path fill="none" stroke="black" d="M-0.5,-211C-0.5,-205 5.5,-199 11.5,-199"/>
<text text-anchor="middle" x="71" y="-294.4" font-family="Times New Roman,serif" font-size="14.00">Material</text>
<polyline fill="none" stroke="black" points="-0.5,-287 142.5,-287 "/>
<text text-anchor="start" x="7.5" y="-270.4" font-family="Times New Roman,serif" font-size="14.00">catalog_number :string</text>
<text text-anchor="start" x="7.5" y="-254.4" font-family="Times New Roman,serif" font-size="14.00">description :text</text>
<text text-anchor="start" x="7.5" y="-238.4" font-family="Times New Roman,serif" font-size="14.00">dimensions :string</text>
<text text-anchor="start" x="7.5" y="-222.4" font-family="Times New Roman,serif" font-size="14.00">price :decimal</text>
<text text-anchor="start" x="7.5" y="-206.4" font-family="Times New Roman,serif" font-size="14.00">valid_until :datetime</text>
</g>
<!-- Material&#45;&gt;AppliedMaterial -->
<g id="edge18" class="edge"><title>Material&#45;&gt;AppliedMaterial</title>
<path fill="none" stroke="black" d="M79.8188,-190.799C83.6739,-162.734 88.0419,-130.935 91.2671,-107.455"/>
<ellipse fill="none" stroke="black" cx="79.2492" cy="-194.946" rx="4.00001" ry="4.00001"/>
<polygon fill="black" stroke="black" points="91.3017,-107.203 97.1208,-97.9085 91.9822,-102.25 92.6626,-97.2961 92.6626,-97.2961 92.6626,-97.2961 91.9822,-102.25 88.2045,-96.6837 91.3017,-107.203 91.3017,-107.203"/>
</g>
<!-- Material&#45;&gt;Material -->
<g id="edge20" class="edge"><title>Material&#45;&gt;Material</title>
<path fill="none" stroke="black" d="M149.694,-277.674C156.056,-272.742 160,-265.184 160,-255 160,-244.816 156.056,-237.258 149.694,-232.326"/>
<ellipse fill="none" stroke="black" cx="146.056" cy="-279.75" rx="4.00002" ry="4.00002"/>
<ellipse fill="black" stroke="black" cx="146.056" cy="-230.25" rx="4.00002" ry="4.00002"/>
</g>
<!-- TimeEntryTypeMaterial -->
<g id="node13" class="node"><title>TimeEntryTypeMaterial</title>
<polyline fill="none" stroke="black" points="226.5,-49 351.5,-49 "/>
<path fill="none" stroke="black" d="M351.5,-49C357.5,-49 363.5,-55 363.5,-61"/>
<polyline fill="none" stroke="black" points="363.5,-61 363.5,-85 "/>
<path fill="none" stroke="black" d="M363.5,-85C363.5,-91 357.5,-97 351.5,-97"/>
<polyline fill="none" stroke="black" points="351.5,-97 226.5,-97 "/>
<path fill="none" stroke="black" d="M226.5,-97C220.5,-97 214.5,-91 214.5,-85"/>
<polyline fill="none" stroke="black" points="214.5,-85 214.5,-61 "/>
<path fill="none" stroke="black" d="M214.5,-61C214.5,-55 220.5,-49 226.5,-49"/>
<text text-anchor="middle" x="289" y="-80.4" font-family="Times New Roman,serif" font-size="14.00">TimeEntryTypeMaterial</text>
<polyline fill="none" stroke="black" points="214.5,-73 363.5,-73 "/>
<text text-anchor="start" x="222.5" y="-56.4" font-family="Times New Roman,serif" font-size="14.00">amount :integer</text>
</g>
<!-- Material&#45;&gt;TimeEntryTypeMaterial -->
<g id="edge16" class="edge"><title>Material&#45;&gt;TimeEntryTypeMaterial</title>
<path fill="none" stroke="black" d="M144.486,-193.649C180.733,-163.388 222.863,-128.215 252.248,-103.683"/>
<ellipse fill="none" stroke="black" cx="141.257" cy="-196.345" rx="4.00002" ry="4.00002"/>
<polygon fill="black" stroke="black" points="252.506,-103.468 263.066,-100.513 256.344,-100.263 260.182,-97.0589 260.182,-97.0589 260.182,-97.0589 256.344,-100.263 257.298,-93.6045 252.506,-103.468 252.506,-103.468"/>
</g>
<!-- Order&#45;&gt;AppliedMaterial -->
<g id="edge22" class="edge"><title>Order&#45;&gt;AppliedMaterial</title>
<path fill="none" stroke="black" d="M207.989,-223.978C183.489,-190.948 144.89,-138.911 120.013,-105.373"/>
<ellipse fill="none" stroke="black" cx="210.69" cy="-227.619" rx="4.00002" ry="4.00002"/>
<polygon fill="black" stroke="black" points="119.959,-105.3 117.615,-94.5872 116.98,-101.284 114.001,-97.2682 114.001,-97.2682 114.001,-97.2682 116.98,-101.284 110.387,-99.9491 119.959,-105.3 119.959,-105.3"/>
</g>
<!-- Order&#45;&gt;TimeEntry -->
<g id="edge24" class="edge"><title>Order&#45;&gt;TimeEntry</title>
<path fill="none" stroke="black" d="M252.294,-224.135C263.225,-209.951 277.496,-193.717 293,-182 323.783,-158.737 338.933,-165.884 372,-146 381.513,-140.28 391.188,-133.772 400.545,-127.054"/>
<ellipse fill="none" stroke="black" cx="249.608" cy="-227.707" rx="4.00002" ry="4.00002"/>
<polygon fill="black" stroke="black" points="400.601,-127.013 411.329,-124.742 404.637,-124.061 408.673,-121.11 408.673,-121.11 408.673,-121.11 404.637,-124.061 406.017,-117.478 400.601,-127.013 400.601,-127.013"/>
</g>
<!-- Secretary -->
<g id="node10" class="node"><title>Secretary</title>
<polyline fill="none" stroke="black" points="558.5,-1 725.5,-1 "/>
<path fill="none" stroke="black" d="M725.5,-1C731.5,-1 737.5,-7 737.5,-13"/>
<polyline fill="none" stroke="black" points="737.5,-13 737.5,-133 "/>
<path fill="none" stroke="black" d="M737.5,-133C737.5,-139 731.5,-145 725.5,-145"/>
<polyline fill="none" stroke="black" points="725.5,-145 558.5,-145 "/>
<path fill="none" stroke="black" d="M558.5,-145C552.5,-145 546.5,-139 546.5,-133"/>
<polyline fill="none" stroke="black" points="546.5,-133 546.5,-13 "/>
<path fill="none" stroke="black" d="M546.5,-13C546.5,-7 552.5,-1 558.5,-1"/>
<text text-anchor="middle" x="642" y="-128.4" font-family="Times New Roman,serif" font-size="14.00">Secretary</text>
<polyline fill="none" stroke="black" points="546.5,-121 737.5,-121 "/>
<text text-anchor="start" x="554.5" y="-104.4" font-family="Times New Roman,serif" font-size="14.00">email :string</text>
<text text-anchor="start" x="554.5" y="-88.4" font-family="Times New Roman,serif" font-size="14.00">encrypted_password :string</text>
<text text-anchor="start" x="554.5" y="-72.4" font-family="Times New Roman,serif" font-size="14.00">remember_created_at :datetime</text>
<text text-anchor="start" x="554.5" y="-56.4" font-family="Times New Roman,serif" font-size="14.00">password_salt :string</text>
<text text-anchor="start" x="554.5" y="-40.4" font-family="Times New Roman,serif" font-size="14.00">first_name :string</text>
<text text-anchor="start" x="554.5" y="-24.4" font-family="Times New Roman,serif" font-size="14.00">last_name :string</text>
<text text-anchor="start" x="554.5" y="-8.4" font-family="Times New Roman,serif" font-size="14.00">phone :string</text>
</g>
<!-- TimeEntryType -->
<g id="node12" class="node"><title>TimeEntryType</title>
<polyline fill="none" stroke="black" points="313.5,-223 416.5,-223 "/>
<path fill="none" stroke="black" d="M416.5,-223C422.5,-223 428.5,-229 428.5,-235"/>
<polyline fill="none" stroke="black" points="428.5,-235 428.5,-275 "/>
<path fill="none" stroke="black" d="M428.5,-275C428.5,-281 422.5,-287 416.5,-287"/>
<polyline fill="none" stroke="black" points="416.5,-287 313.5,-287 "/>
<path fill="none" stroke="black" d="M313.5,-287C307.5,-287 301.5,-281 301.5,-275"/>
<polyline fill="none" stroke="black" points="301.5,-275 301.5,-235 "/>
<path fill="none" stroke="black" d="M301.5,-235C301.5,-229 307.5,-223 313.5,-223"/>
<text text-anchor="middle" x="365" y="-270.4" font-family="Times New Roman,serif" font-size="14.00">TimeEntryType</text>
<polyline fill="none" stroke="black" points="301.5,-263 428.5,-263 "/>
<text text-anchor="start" x="309.5" y="-246.4" font-family="Times New Roman,serif" font-size="14.00">description :string</text>
<text text-anchor="start" x="309.5" y="-230.4" font-family="Times New Roman,serif" font-size="14.00">valid_until :datetime</text>
</g>
<!-- TimeEntryType&#45;&gt;TimeEntry -->
<g id="edge32" class="edge"><title>TimeEntryType&#45;&gt;TimeEntry</title>
<path fill="none" stroke="black" d="M387.028,-215.696C401.037,-190.699 419.411,-157.914 435.014,-130.073"/>
<ellipse fill="none" stroke="black" cx="384.956" cy="-219.392" rx="4.00002" ry="4.00002"/>
<polygon fill="black" stroke="black" points="435.084,-129.947 443.899,-123.424 437.529,-125.586 439.973,-121.224 439.973,-121.224 439.973,-121.224 437.529,-125.586 436.048,-119.024 435.084,-129.947 435.084,-129.947"/>
</g>
<!-- TimeEntryType&#45;&gt;TimeEntryType -->
<g id="edge30" class="edge"><title>TimeEntryType&#45;&gt;TimeEntryType</title>
<path fill="none" stroke="black" d="M435.612,-278.49C441.991,-273.592 446,-265.762 446,-255 446,-244.238 441.991,-236.408 435.612,-231.51"/>
<ellipse fill="none" stroke="black" cx="432.006" cy="-280.478" rx="4.00002" ry="4.00002"/>
<ellipse fill="black" stroke="black" cx="432.006" cy="-229.522" rx="4.00002" ry="4.00002"/>
</g>
<!-- TimeEntryType&#45;&gt;TimeEntryTypeMaterial -->
<g id="edge28" class="edge"><title>TimeEntryType&#45;&gt;TimeEntryTypeMaterial</title>
<path fill="none" stroke="black" d="M348.487,-215.455C334.92,-182.967 315.911,-137.446 303.062,-106.676"/>
<ellipse fill="none" stroke="black" cx="350.046" cy="-219.19" rx="4.00002" ry="4.00002"/>
<polygon fill="black" stroke="black" points="302.975,-106.467 303.274,-95.5047 301.048,-101.853 299.122,-97.2387 299.122,-97.2387 299.122,-97.2387 301.048,-101.853 294.969,-98.9728 302.975,-106.467 302.975,-106.467"/>
</g>
<!-- User -->
<g id="node14" class="node"><title>User</title>
<polyline fill="none" stroke="black" points="558.5,-183 725.5,-183 "/>
<path fill="none" stroke="black" d="M725.5,-183C731.5,-183 737.5,-189 737.5,-195"/>
<polyline fill="none" stroke="black" points="737.5,-195 737.5,-315 "/>
<path fill="none" stroke="black" d="M737.5,-315C737.5,-321 731.5,-327 725.5,-327"/>
<polyline fill="none" stroke="black" points="725.5,-327 558.5,-327 "/>
<path fill="none" stroke="black" d="M558.5,-327C552.5,-327 546.5,-321 546.5,-315"/>
<polyline fill="none" stroke="black" points="546.5,-315 546.5,-195 "/>
<path fill="none" stroke="black" d="M546.5,-195C546.5,-189 552.5,-183 558.5,-183"/>
<text text-anchor="middle" x="642" y="-310.4" font-family="Times New Roman,serif" font-size="14.00">User</text>
<polyline fill="none" stroke="black" points="546.5,-303 737.5,-303 "/>
<text text-anchor="start" x="554.5" y="-286.4" font-family="Times New Roman,serif" font-size="14.00">email :string</text>
<text text-anchor="start" x="554.5" y="-270.4" font-family="Times New Roman,serif" font-size="14.00">encrypted_password :string</text>
<text text-anchor="start" x="554.5" y="-254.4" font-family="Times New Roman,serif" font-size="14.00">remember_created_at :datetime</text>
<text text-anchor="start" x="554.5" y="-238.4" font-family="Times New Roman,serif" font-size="14.00">password_salt :string</text>
<text text-anchor="start" x="554.5" y="-222.4" font-family="Times New Roman,serif" font-size="14.00">first_name :string</text>
<text text-anchor="start" x="554.5" y="-206.4" font-family="Times New Roman,serif" font-size="14.00">last_name :string</text>
<text text-anchor="start" x="554.5" y="-190.4" font-family="Times New Roman,serif" font-size="14.00">phone :string</text>
</g>
<!-- User&#45;&gt;FieldWorker -->
<g id="edge10" class="edge"><title>User&#45;&gt;FieldWorker</title>
<path fill="none" stroke="black" d="M724.506,-182.807C738.684,-170.402 753.419,-157.509 767.594,-145.105"/>
</g>
<!-- User&#45;&gt;Secretary -->
<g id="edge26" class="edge"><title>User&#45;&gt;Secretary</title>
<path fill="none" stroke="black" d="M642,-182.807C642,-170.402 642,-157.509 642,-145.105"/>
</g>
<!-- User&#45;&gt;TimeEntry -->
<g id="edge34" class="edge"><title>User&#45;&gt;TimeEntry</title>
<path fill="none" stroke="black" d="M566.944,-176.941C551.25,-160.62 535.01,-143.731 520.301,-128.433"/>
<ellipse fill="none" stroke="black" cx="569.812" cy="-179.924" rx="4.00002" ry="4.00002"/>
<polygon fill="black" stroke="black" points="520.143,-128.269 516.456,-117.942 516.678,-124.665 513.212,-121.061 513.212,-121.061 513.212,-121.061 516.678,-124.665 509.968,-124.18 520.143,-128.269 520.143,-128.269"/>
</g>
</g>
</svg>
